<svg xmlns="http://www.w3.org/2000/svg" version="1.1" xmlns:xlink="http://www.w3.org/1999/xlink" xmlns:svgjs="http://svgjs.dev/svgjs" width="1000" height="421" viewBox="0 0 1000 421"><g transform="matrix(1,0,0,1,-0.6056348047761162,-0.30120034354916925)"><svg viewBox="0 0 396 167" data-background-color="#ecab55" preserveAspectRatio="xMidYMid meet" height="421" width="1000" xmlns="http://www.w3.org/2000/svg" xmlns:xlink="http://www.w3.org/1999/xlink"><g id="tight-bounds" transform="matrix(1,0,0,1,0.24008861730862918,0.11947852107532242)"><svg viewBox="0 0 395.52 166.76097504397936" height="166.76097504397936" width="395.52"><g><svg viewBox="0 0 395.52 166.76097504397936" height="166.76097504397936" width="395.52"><g><svg viewBox="0 0 395.52 166.76097504397936" height="166.76097504397936" width="395.52"><g><svg viewBox="0 0 395.52 166.76097504397936" height="166.76097504397936" width="395.52"><g><svg viewBox="0 0 395.52 166.76097504397936" height="166.76097504397936" width="395.52"><path d="M394.594 35.767C392.735 18.457 387.435 13.645 387.435 13.645 371.165-4.184 350.86-0.341 332.619 2.221 300.414 2.325 268.339 6.133 236.208 8.175 168.767 8.487 100.749 3.363 33.643 15.999 27.339 19.877-6.54 16.761 1.121 37.983 3.129 46.811 10.456 56.608 10.232 64.709 11.236 66.128 12.631 62.874 13.226 64.917 15.309 70.421 18.711 67.825 21.501 71.079 17.614 79.768 20.403 87.004 23.062 94.586 18.377 96.559 12.371 95.624 9.675 102.167 9.396 106.91 7.89 106.01 6.235 105.802 5.026 105.664 2.59 106.183 2.999 107.672 4.394 112.761-1.594 115.703 2.162 120.689-0.422 126.089 3.948 130.763 3.353 136.614 3.278 137.791 3.687 138.795 4.338 139.072 7.22 140.56 3.018 143.468 3.464 146.619 33.029 168.152 65.104 153.265 95.394 163.167 103.259 156.243 97.346 165.625 100.489 164.171 102.943 162.474 104.728 169.502 107.499 165.521 107.927 164.378 107.276 161.678 108.8 162.197 109.6 162.474 110.307 162.405 110.418 160.813 110.586 158.424 109.117 159.912 108.726 158.666 112.947 152.365 111.906 167.356 115.866 166.732 115.68 164.898 114.528 162.267 116.889 162.613 119.232 159.982 119.306 157.801 121.389 163.721 121.463 165.001 121.835 165.902 122.43 166.525 128.938 160.086 135.409 168.81 142.233 165.902 146.417 162.717 150.433 167.633 154.672 166.421 156.16 165.452 157.666 163.721 159.098 166.629 176.632 167.252 195.319 164.655 211.943 166.732 256.364 162.855 303.835 168.325 350.674 163.201 361.719 161.228 373.192 158.424 383.958 156.174 383.958 156.174 392.679 150.011 392.679 122.316S394.538 98.082 394.817 76.029C395.096 53.977 396.398 53.077 394.538 35.767Z" opacity="1" fill="#ffffff" data-fill-palette-color="tertiary"></path><g transform="matrix(1,0,0,1,55.76832,26.230666666666668)"><svg width="283.98335999999995" viewBox="2.369999885559082 -32.400001525878906 80.48999786376953 32.400001525878906" height="114.29964171064601" data-palette-color="#ecab55"><path d="M13.16-32.4L13.16 0 8.86 0 2.37-6.47 2.37-25.93 8.86-32.4 13.16-32.4ZM22.05-25.93L14.87-25.93 14.87-32.4 26.37-32.4 32.84-25.93 32.84-19.41 22.05-19.41 22.05-25.93ZM26.37 0L14.87 0 14.87-6.47 22.05-6.47 22.05-11.21 32.84-11.21 32.84-6.47 26.37 0ZM45.26-32.4L50.02-14.6 53.27-28.2 57.49-12.82 54 0 44.21 0 34.52-32.4 45.26-32.4ZM64.62-32.4L72.92 0 62.62 0 53.73-32.4 64.62-32.4ZM69.68-18.95L73.02-32.4 82.86-32.4 74.07-1.68 69.68-18.95Z" opacity="1" transform="matrix(1,0,0,1,0,0)" fill="#ecab55" class="undefined-text-0" data-fill-palette-color="quaternary" id="text-0"></path></svg></g></svg></g></svg></g></svg></g><g></g></svg></g><defs></defs></svg><rect width="395.52" height="166.76097504397936" fill="none" stroke="none" visibility="hidden"></rect></g></svg></g></svg>